<svg width="15" height="12" viewBox="0 0 15 12" fill="none" xmlns="http://www.w3.org/2000/svg">
<path d="M1.48586 11.96C1.43253 11.96 1.37919 11.9333 1.32586 11.88L1.18586 11.84L1.14586 11.86L1.18586 11.8C1.18586 11.76 1.15919 11.74 1.10586 11.74C1.05253 11.74 1.01253 11.74 0.985859 11.74C0.999193 11.6467 0.945859 11.6 0.825859 11.6C0.719193 11.6 0.672526 11.5733 0.685859 11.52L0.605859 11.5C0.592526 11.4333 0.552526 11.3733 0.485859 11.32C0.512526 11.2933 0.519193 11.26 0.505859 11.22C0.492526 11.1933 0.485859 11.1733 0.485859 11.16C0.459193 11.16 0.432526 11.1467 0.405859 11.12L0.385859 11.06C0.359193 11.06 0.319193 11.0467 0.265859 11.02C0.265859 10.9933 0.259193 10.9667 0.245859 10.94C0.245859 10.9133 0.245859 10.8933 0.245859 10.88H0.225859C0.212526 10.8267 0.192526 10.8 0.165859 10.8C0.152526 10.8 0.132526 10.7933 0.105859 10.78C0.0791927 10.6733 0.072526 10.5933 0.0858594 10.54C0.0991927 10.4867 0.0991927 10.4133 0.0858594 10.32L0.105859 10.28C0.172526 10.16 0.205859 10.1 0.205859 10.1C0.245859 10.1 0.279193 10.14 0.305859 10.22C0.332526 10.3 0.359193 10.36 0.385859 10.4C0.399193 10.4133 0.419193 10.4267 0.445859 10.44C0.472526 10.4533 0.479193 10.4667 0.465859 10.48L0.445859 10.56L0.485859 10.54C0.485859 10.5933 0.499193 10.6333 0.525859 10.66C0.539193 10.7133 0.565859 10.8 0.605859 10.92C0.645859 11.0267 0.712526 11.0733 0.805859 11.06C0.805859 11.1 0.825859 11.14 0.865859 11.18C0.919193 11.22 0.965859 11.2333 1.00586 11.22C1.01919 11.2467 1.05253 11.2667 1.10586 11.28C1.15919 11.2933 1.19919 11.3067 1.22586 11.32C1.29253 11.3067 1.35919 11.3 1.42586 11.3C1.50586 11.3133 1.57919 11.3133 1.64586 11.3L2.08586 11.22C2.09919 11.2067 2.16586 11.1733 2.28586 11.12C2.40586 11.0667 2.49253 11.0133 2.54586 10.96H2.56586C2.63253 10.96 2.69919 10.9467 2.76586 10.92C2.84586 10.88 2.91253 10.8467 2.96586 10.82C3.00586 10.8067 3.03919 10.7867 3.06586 10.76C3.09253 10.72 3.12586 10.6933 3.16586 10.68L3.34586 10.58C3.38586 10.5533 3.42586 10.5467 3.46586 10.56C3.51919 10.56 3.56586 10.5333 3.60586 10.48C3.64586 10.4533 3.67919 10.42 3.70586 10.38C3.74586 10.34 3.77919 10.3067 3.80586 10.28H3.86586C3.90586 10.2133 3.93253 10.16 3.94586 10.12L4.32586 9.98C4.35253 9.95333 4.37253 9.92667 4.38586 9.9C4.41253 9.86 4.43253 9.82667 4.44586 9.8C4.47253 9.77333 4.50586 9.75333 4.54586 9.74C4.58586 9.71333 4.60586 9.67333 4.60586 9.62C4.67253 9.59333 4.73253 9.56 4.78586 9.52C4.85253 9.48 4.89919 9.43333 4.92586 9.38C4.95253 9.36667 5.03253 9.30667 5.16586 9.2C5.29919 9.08 5.45253 8.94667 5.62586 8.8C5.79919 8.65333 5.95253 8.52667 6.08586 8.42C6.21919 8.3 6.29253 8.23333 6.30586 8.22L6.38586 8.14L5.76586 7.9C5.41919 7.76667 5.05919 7.66 4.68586 7.58C4.32586 7.48667 3.93253 7.42 3.50586 7.38C3.41253 7.36667 3.34586 7.34 3.30586 7.3C3.27919 7.24667 3.26586 7.15333 3.26586 7.02C3.26586 6.84667 3.33253 6.73333 3.46586 6.68C3.59919 6.61333 3.75253 6.58 3.92586 6.58C4.11253 6.58 4.25919 6.59333 4.36586 6.62C4.48586 6.64667 4.65253 6.66667 4.86586 6.68C4.89253 6.68 4.99253 6.7 5.16586 6.74C5.33919 6.76667 5.52586 6.79333 5.72586 6.82C5.75253 6.82 5.85919 6.82667 6.04586 6.84C6.24586 6.85333 6.41919 6.86 6.56586 6.86C6.73919 6.84667 6.91919 6.84 7.10586 6.84C7.29253 6.84 7.47919 6.84 7.66586 6.84L7.98586 6.48C8.10586 6.34667 8.21919 6.21333 8.32586 6.08C8.44586 5.94667 8.57253 5.82 8.70586 5.7C8.74586 5.66 8.78586 5.62667 8.82586 5.6C8.87919 5.57333 8.92586 5.53333 8.96586 5.48L9.14586 5.26C9.17253 5.23333 9.19919 5.21333 9.22586 5.2C9.26586 5.18667 9.29253 5.17333 9.30586 5.16C9.35919 5.10667 9.40586 5.04667 9.44586 4.98C9.48586 4.91333 9.51919 4.85333 9.54586 4.8C9.57253 4.8 9.61919 4.76 9.68586 4.68C9.75253 4.6 9.79253 4.54667 9.80586 4.52C9.87253 4.49333 9.91919 4.45333 9.94586 4.4C9.98586 4.33333 10.0192 4.26667 10.0459 4.2C10.0859 4.17333 10.1259 4.14667 10.1659 4.12C10.2192 4.08 10.2592 4.04 10.2859 4C10.3125 3.96 10.3325 3.91333 10.3459 3.86C10.3725 3.80667 10.4125 3.77333 10.4659 3.76C10.5059 3.65333 10.5925 3.53333 10.7259 3.4C10.8725 3.25333 10.9525 3.15333 10.9659 3.1C11.0325 3.08667 11.0925 3.04667 11.1459 2.98C11.1992 2.9 11.2525 2.84667 11.3059 2.82C11.3592 2.67333 11.4592 2.54667 11.6059 2.44C11.7525 2.32 11.8325 2.19333 11.8459 2.06C11.8592 2.03333 11.8792 2.01333 11.9059 2C11.9325 1.98667 11.9525 1.97333 11.9659 1.96C12.0059 1.93333 12.0325 1.9 12.0459 1.86C12.0725 1.80667 12.1059 1.76 12.1459 1.72C12.1592 1.69333 12.1725 1.67333 12.1859 1.66C12.2125 1.64667 12.2325 1.63333 12.2459 1.62C12.2325 1.62 12.1859 1.60667 12.1059 1.58C12.0792 1.58 12.0259 1.58 11.9459 1.58C11.8659 1.56667 11.7792 1.56 11.6859 1.56C11.3792 1.56 11.1725 1.57333 11.0659 1.6C10.8125 1.61333 10.5925 1.63333 10.4059 1.66C10.2325 1.68667 10.0259 1.73333 9.78586 1.8C9.78586 1.8 9.77919 1.79333 9.76586 1.78C9.75253 1.76667 9.73919 1.76 9.72586 1.76L9.70586 1.74C9.66586 1.72667 9.65919 1.73333 9.68586 1.76C9.71253 1.78667 9.70586 1.80667 9.66586 1.82C9.58586 1.83333 9.49253 1.85333 9.38586 1.88C9.29253 1.90667 9.20586 1.92 9.12586 1.92C9.08586 1.93333 9.04586 1.94 9.00586 1.94C8.96586 1.92667 8.92586 1.92 8.88586 1.92C8.75253 1.93333 8.61919 1.98 8.48586 2.06C8.36586 2.12667 8.23919 2.17333 8.10586 2.2L7.86586 2.26C7.77253 2.28667 7.69919 2.31333 7.64586 2.34C7.60586 2.35333 7.53253 2.37333 7.42586 2.4L7.24586 2.46C7.20586 2.47333 7.15919 2.48667 7.10586 2.5C7.06586 2.51333 7.01919 2.52667 6.96586 2.54C6.85919 2.58 6.74586 2.62667 6.62586 2.68C6.51919 2.73333 6.41253 2.77333 6.30586 2.8L5.94586 2.9C5.90586 2.91333 5.84586 2.92 5.76586 2.92C5.65919 2.92 5.58586 2.90667 5.54586 2.88C5.49253 2.85333 5.42586 2.78 5.34586 2.66C5.27919 2.52667 5.25253 2.43333 5.26586 2.38C5.34586 2.26 5.50586 2.16667 5.74586 2.1C5.99919 2.02 6.15919 1.97333 6.22586 1.96C6.23919 1.94667 6.29919 1.92667 6.40586 1.9C6.52586 1.86 6.63919 1.82667 6.74586 1.8C6.85253 1.77333 6.90586 1.77333 6.90586 1.8C6.91919 1.81333 6.84586 1.86667 6.68586 1.96C6.52586 2.04 6.43919 2.08667 6.42586 2.1C6.42586 2.11333 6.41253 2.13333 6.38586 2.16C6.37253 2.18667 6.37253 2.19333 6.38586 2.18L6.84586 2.06C6.87253 2.04667 6.92586 2.04 7.00586 2.04H7.14586C7.23919 2.04 7.29919 2.02667 7.32586 2C7.35253 1.94667 7.37919 1.92 7.40586 1.92C7.47253 1.89333 7.57253 1.87333 7.70586 1.86C7.85253 1.83333 7.94586 1.80667 7.98586 1.78C8.05253 1.76667 8.12586 1.76 8.20586 1.76C8.28586 1.74667 8.35919 1.72667 8.42586 1.7C8.46586 1.68667 8.59919 1.66 8.82586 1.62C9.06586 1.58 9.30586 1.54 9.54586 1.5C9.78586 1.46 9.91919 1.44 9.94586 1.44H9.96586C10.0325 1.44 10.0992 1.43333 10.1659 1.42C10.2325 1.39333 10.2725 1.42 10.2859 1.5C10.2992 1.5 10.3059 1.50667 10.3059 1.52C10.3059 1.52 10.3125 1.52 10.3259 1.52C10.4059 1.52 10.4792 1.48667 10.5459 1.42C10.5725 1.40667 10.6392 1.39333 10.7459 1.38C10.8525 1.36667 10.9192 1.36 10.9459 1.36C11.0525 1.34667 11.1392 1.34 11.2059 1.34C11.2725 1.34 11.3325 1.34 11.3859 1.34C11.4925 1.34 11.5859 1.34667 11.6659 1.36C11.7592 1.36 11.8725 1.36667 12.0059 1.38C12.0592 1.39333 12.1259 1.4 12.2059 1.4C12.2992 1.4 12.3792 1.40667 12.4459 1.42L12.5259 1.32C12.6192 1.26667 12.6992 1.24 12.7659 1.24C12.8192 1.24 12.8459 1.26667 12.8459 1.32C12.8459 1.46667 12.7725 1.6 12.6259 1.72C12.6125 1.73333 12.5792 1.75333 12.5259 1.78C12.4725 1.79333 12.4392 1.81333 12.4259 1.84C12.3592 2.01333 12.2259 2.17333 12.0259 2.32C11.8392 2.46667 11.7392 2.57333 11.7259 2.64C11.6725 2.66667 11.6125 2.70667 11.5459 2.76C11.4792 2.81333 11.4392 2.86667 11.4259 2.92C11.3592 3 11.3059 3.08667 11.2659 3.18C11.2259 3.26 11.1659 3.34 11.0859 3.42C11.0459 3.46 10.9792 3.54 10.8859 3.66C10.7925 3.78 10.6992 3.9 10.6059 4.02C10.5125 4.12667 10.4459 4.18 10.4059 4.18C10.3659 4.22 10.3459 4.24667 10.3459 4.26C10.3592 4.27333 10.3325 4.3 10.2659 4.34C10.1992 4.40667 10.1459 4.48 10.1059 4.56C10.0259 4.57333 9.95919 4.62667 9.90586 4.72C9.86586 4.8 9.82586 4.87333 9.78586 4.94C9.73253 5.00667 9.67253 5.06667 9.60586 5.12C9.55253 5.17333 9.49919 5.23333 9.44586 5.3C9.39253 5.31333 9.33253 5.37333 9.26586 5.48C9.21253 5.57333 9.17253 5.64 9.14586 5.68C9.06586 5.77333 8.99253 5.84667 8.92586 5.9C8.87253 5.95333 8.84586 6.04667 8.84586 6.18C8.81919 6.20667 8.77919 6.24667 8.72586 6.3C8.67253 6.35333 8.63919 6.4 8.62586 6.44C8.59919 6.49333 8.55919 6.54 8.50586 6.58C8.46586 6.62 8.43253 6.66667 8.40586 6.72L8.34586 6.76L8.32586 6.8C8.48586 6.8 8.64586 6.8 8.80586 6.8C8.96586 6.8 9.11919 6.79333 9.26586 6.78L9.92586 6.74C9.95253 6.74 9.99253 6.76 10.0459 6.8C10.1125 6.82667 10.1525 6.83333 10.1659 6.82C10.2059 6.82 10.2192 6.8 10.2059 6.76C10.1925 6.70667 10.2125 6.68 10.2659 6.68C10.3859 6.66667 10.5325 6.65333 10.7059 6.64C10.8925 6.61333 11.0725 6.58 11.2459 6.54L11.4259 5.98L11.6059 5.4C11.6325 5.30667 11.6725 5.24667 11.7259 5.22C11.7792 5.19333 11.8125 5.15333 11.8259 5.1C11.8392 5.07333 11.8259 5.05333 11.7859 5.04C11.7459 5.01333 11.7459 4.97333 11.7859 4.92C11.9059 4.54667 12.0592 4.17333 12.2459 3.8C12.4325 3.42667 12.5925 3.08667 12.7259 2.78V2.76C12.7659 2.70667 12.7992 2.66667 12.8259 2.64C12.8659 2.61333 12.8925 2.58 12.9059 2.54C12.8925 2.52667 12.8925 2.51333 12.9059 2.5C12.9192 2.48667 12.9125 2.47333 12.8859 2.46C12.9792 2.36667 13.0325 2.24667 13.0459 2.1L13.2459 1.68L13.5459 1.2C13.5592 1.16 13.5925 1.11333 13.6459 1.06C13.7525 0.939999 13.8459 0.879999 13.9259 0.879999C14.0459 0.879999 14.0525 0.953333 13.9459 1.1L13.9059 1.2L13.7659 1.38L13.6859 1.6C13.5525 1.84 13.4259 2.1 13.3059 2.38C13.1859 2.66 13.0525 2.95333 12.9059 3.26V3.34C12.9059 3.40667 12.8859 3.45333 12.8459 3.48C12.8192 3.50667 12.7659 3.53333 12.6859 3.56C12.7259 3.64 12.7325 3.72667 12.7059 3.82L12.5659 4.22C12.5125 4.35333 12.4392 4.51333 12.3459 4.7C12.2525 4.88667 12.1992 5.03333 12.1859 5.14C12.0525 5.56667 11.9525 5.97333 11.8859 6.36C11.9259 6.34667 11.9659 6.33333 12.0059 6.32C12.0459 6.30667 12.0792 6.29333 12.1059 6.28C12.1725 6.25333 12.2192 6.24 12.2459 6.24C12.2859 6.24 12.3392 6.23333 12.4059 6.22C12.4859 6.19333 12.5659 6.16 12.6459 6.12C12.6859 6.09333 12.7392 6.08 12.8059 6.08C12.8725 6.08 12.9059 6.1 12.9059 6.14C12.9059 6.19333 12.8459 6.25333 12.7259 6.32L12.3059 6.56C12.1992 6.58667 12.1125 6.6 12.0459 6.6C12.0192 6.6 11.9525 6.61333 11.8459 6.64L11.7659 7.1L11.7859 7.4C11.7725 7.44 11.7125 7.46 11.6059 7.46C11.5125 7.46 11.4992 7.52 11.5659 7.64C11.6192 7.70667 11.6525 7.75333 11.6659 7.78C11.6792 7.79333 11.6725 7.85333 11.6459 7.96C11.5925 8.12 11.5459 8.33333 11.5059 8.6C11.4792 8.86667 11.4592 9.08667 11.4459 9.26C11.4459 9.27333 11.4325 9.30667 11.4059 9.36C11.3925 9.41333 11.3792 9.45333 11.3659 9.48C11.3659 9.49333 11.3725 9.5 11.3859 9.5C11.4125 9.5 11.4259 9.51333 11.4259 9.54C11.4525 9.82 11.4525 10.08 11.4259 10.32L11.3859 10.78C11.3859 10.7933 11.3725 10.82 11.3459 10.86C11.3192 10.9 11.3125 10.9333 11.3259 10.96C11.2859 11.1067 11.2125 11.2067 11.1059 11.26C10.9992 11.3267 10.8925 11.36 10.7859 11.36C10.5859 11.36 10.4525 11.3267 10.3859 11.26L10.2859 11.18V10.74C10.2059 10.6733 10.1259 10.6067 10.0459 10.54C9.96586 10.4733 9.88586 10.4133 9.80586 10.36C9.65919 10.2533 9.51253 10.16 9.36586 10.08C9.23253 9.98667 9.09253 9.88667 8.94586 9.78C8.78586 9.66 8.62586 9.53333 8.46586 9.4C8.31919 9.26667 8.15919 9.14 7.98586 9.02C7.79919 8.88667 7.60586 8.76667 7.40586 8.66C7.20586 8.54 7.00586 8.43333 6.80586 8.34C6.75253 8.39333 6.65253 8.49333 6.50586 8.64C6.35919 8.77333 6.21919 8.90667 6.08586 9.04C5.95253 9.16 5.87253 9.22667 5.84586 9.24C5.83253 9.26667 5.81253 9.29333 5.78586 9.32C5.77253 9.34667 5.75253 9.37333 5.72586 9.4C5.69919 9.41333 5.65919 9.43333 5.60586 9.46C5.56586 9.48667 5.54586 9.51333 5.54586 9.54C5.51919 9.56667 5.47919 9.59333 5.42586 9.62C5.38586 9.63333 5.35919 9.66667 5.34586 9.72L5.36586 9.74C5.31253 9.75333 5.28586 9.76667 5.28586 9.78C5.29919 9.79333 5.30586 9.82 5.30586 9.86C5.29253 9.87333 5.24586 9.9 5.16586 9.94C5.09919 9.98 5.05253 10.0067 5.02586 10.02C4.90586 10.0867 4.81919 10.14 4.76586 10.18C4.72586 10.22 4.67253 10.3 4.60586 10.42C4.56586 10.4467 4.47919 10.5 4.34586 10.58C4.21253 10.66 4.14586 10.7133 4.14586 10.74C4.09253 10.7533 4.05919 10.78 4.04586 10.82C4.03253 10.86 4.01253 10.8933 3.98586 10.92C3.97253 10.9467 3.94586 10.9667 3.90586 10.98C3.86586 10.9933 3.83919 11.02 3.82586 11.06L3.78586 11.08H3.76586C3.72586 11.08 3.68586 11.1 3.64586 11.14C3.61919 11.18 3.59253 11.2133 3.56586 11.24C3.41919 11.2533 3.30586 11.2933 3.22586 11.36C3.15919 11.44 3.06586 11.5067 2.94586 11.56C2.78586 11.6267 2.61919 11.6933 2.44586 11.76C2.27253 11.8267 2.09253 11.8733 1.90586 11.9C1.85253 11.9267 1.81253 11.9467 1.78586 11.96C1.77253 11.9867 1.73253 11.9867 1.66586 11.96C1.69253 11.92 1.68586 11.9 1.64586 11.9C1.59253 11.94 1.53919 11.96 1.48586 11.96ZM10.3259 10.48V10.42C10.3259 10.38 10.3459 10.34 10.3859 10.3C10.3725 10.2733 10.3592 10.26 10.3459 10.26C10.3459 10.2467 10.3459 10.2333 10.3459 10.22L10.7659 8.24C10.8192 8 10.8792 7.76 10.9459 7.52C11.0259 7.26667 11.1059 7.01333 11.1859 6.76C11.1592 6.77333 11.1325 6.78 11.1059 6.78C11.0392 6.79333 10.9859 6.8 10.9459 6.8C10.9059 6.8 10.8392 6.81333 10.7459 6.84C10.6125 6.86667 10.4592 6.90667 10.2859 6.96C10.1259 7.01333 9.95253 7.04667 9.76586 7.06C9.63253 7.07333 9.52586 7.07333 9.44586 7.06C9.37919 7.04667 9.27919 7.04667 9.14586 7.06C9.07919 7.07333 8.97253 7.09333 8.82586 7.12C8.67919 7.13333 8.56586 7.14 8.48586 7.14L7.86586 7.22C7.86586 7.22 7.85919 7.22667 7.84586 7.24C7.84586 7.25333 7.84586 7.26667 7.84586 7.28C7.81919 7.30667 7.76586 7.35333 7.68586 7.42C7.61919 7.47333 7.57919 7.52667 7.56586 7.58L7.50586 7.6C7.49253 7.61333 7.46586 7.64667 7.42586 7.7C7.39919 7.74 7.37919 7.77333 7.36586 7.8C7.31253 7.81333 7.26586 7.84667 7.22586 7.9C7.18586 7.95333 7.15253 8.00667 7.12586 8.06C7.07253 8.06 7.03253 8.07333 7.00586 8.1C7.32586 8.27333 7.61253 8.44667 7.86586 8.62C7.91919 8.66 7.95919 8.7 7.98586 8.74C8.01253 8.78 8.05253 8.82 8.10586 8.86C8.22586 8.94 8.33919 9.00667 8.44586 9.06C8.56586 9.1 8.67253 9.16 8.76586 9.24L9.98586 10.16C10.0259 10.1867 10.0792 10.2333 10.1459 10.3C10.2125 10.3533 10.2725 10.4133 10.3259 10.48ZM6.62586 7.9C6.73253 7.79333 6.83919 7.68667 6.94586 7.58C7.05253 7.47333 7.15919 7.36667 7.26586 7.26L5.64586 7.36C5.45919 7.37333 5.32586 7.38 5.24586 7.38C5.17919 7.38 5.07919 7.39333 4.94586 7.42C5.11919 7.46 5.28586 7.50667 5.44586 7.56C5.60586 7.6 5.76586 7.64667 5.92586 7.7C5.99253 7.72667 6.05253 7.75333 6.10586 7.78C6.15919 7.80667 6.21253 7.83333 6.26586 7.86C6.29253 7.87333 6.31919 7.86667 6.34586 7.84C6.37253 7.8 6.39253 7.78667 6.40586 7.8L6.62586 7.9Z" fill="white"/>
</svg>
