<svg width="64" height="71" viewBox="0 0 64 71" fill="none" xmlns="http://www.w3.org/2000/svg">
<path d="M49 0H15C6.71573 0 0 6.71573 0 15V49C0 57.2843 6.71573 64 15 64H49C57.2843 64 64 57.2843 64 49V15C64 6.71573 57.2843 0 49 0Z" fill="#333127"/>
<g filter="url(#filter0_d_167_77)">
<path d="M32.9925 49.0392C40.4115 49.0392 44.8823 45.4065 44.8823 39.415C44.8823 34.8858 41.6925 31.607 36.9557 31.0877V30.8993C40.4357 30.333 43.1665 27.1013 43.1665 23.4922C43.1665 18.3498 39.1067 15 32.92 15H19V49.0392H32.9925ZM24.4133 19.3169H31.615C35.53 19.3169 37.7532 21.0624 37.7532 24.2234C37.7532 27.5968 35.1675 29.4837 30.4792 29.4837H24.4133V19.3169ZM24.4133 44.7225V33.5177H31.5665C36.69 33.5177 39.3483 35.4048 39.3483 39.0848C39.3483 42.7645 36.7625 44.7225 31.8807 44.7225H24.4133Z" fill="url(#paint0_linear_167_77)"/>
<path d="M32.9925 49.0392C40.4115 49.0392 44.8823 45.4065 44.8823 39.415C44.8823 34.8858 41.6925 31.607 36.9557 31.0877V30.8993C40.4357 30.333 43.1665 27.1013 43.1665 23.4922C43.1665 18.3498 39.1067 15 32.92 15H19V49.0392H32.9925ZM24.4133 19.3169H31.615C35.53 19.3169 37.7532 21.0624 37.7532 24.2234C37.7532 27.5968 35.1675 29.4837 30.4792 29.4837H24.4133V19.3169ZM24.4133 44.7225V33.5177H31.5665C36.69 33.5177 39.3483 35.4048 39.3483 39.0848C39.3483 42.7645 36.7625 44.7225 31.8807 44.7225H24.4133Z" stroke="#F2EFE6" stroke-width="2"/>
</g>
<defs>
<filter id="filter0_d_167_77" x="2" y="2" width="59.8828" height="68.0393" filterUnits="userSpaceOnUse" color-interpolation-filters="sRGB">
<feFlood flood-opacity="0" result="BackgroundImageFix"/>
<feColorMatrix in="SourceAlpha" type="matrix" values="0 0 0 0 0 0 0 0 0 0 0 0 0 0 0 0 0 0 127 0" result="hardAlpha"/>
<feOffset dy="4"/>
<feGaussianBlur stdDeviation="8"/>
<feColorMatrix type="matrix" values="0 0 0 0 0 0 0 0 0 0 0 0 0 0 0 0 0 0 0.15 0"/>
<feBlend mode="normal" in2="BackgroundImageFix" result="effect1_dropShadow_167_77"/>
<feBlend mode="normal" in="SourceGraphic" in2="effect1_dropShadow_167_77" result="shape"/>
</filter>
<linearGradient id="paint0_linear_167_77" x1="21.4483" y1="17.2405" x2="37.1352" y2="43.771" gradientUnits="userSpaceOnUse">
<stop stop-color="white"/>
<stop offset="1" stop-color="#F1E5FC"/>
</linearGradient>
</defs>
</svg>
