<svg width="64" height="64" viewBox="0 0 64 64" fill="none" xmlns="http://www.w3.org/2000/svg">
<path d="M49 0H15C6.71573 0 0 6.71573 0 15V49C0 57.2843 6.71573 64 15 64H49C57.2843 64 64 57.2843 64 49V15C64 6.71573 57.2843 0 49 0Z" fill="#333127"/>
<path d="M13.4336 25.6626L14.1493 33.6481H32.0194V25.6626H13.4336Z" fill="#EBEBEB"/>
<path d="M32.0237 9.5H31.9962H12L12.7259 17.4856H32.0237V9.5Z" fill="#EBEBEB"/>
<path d="M32.0209 54.7101V46.4019L31.9859 46.4111L23.0925 44.0099L22.524 37.6409H18.2024H14.5078L15.6266 50.1794L31.9842 54.7204L32.0209 54.7101Z" fill="#EBEBEB"/>
<path d="M41.8293 33.6483L40.9023 44.0047L31.9961 46.4087V54.7165L48.3668 50.1795L48.4868 48.8302L50.3633 27.8072L50.5581 25.6628L51.9998 9.5H31.9961V17.4856H43.2483L42.5218 25.6628H31.9961V33.6483H41.8293Z" fill="#F2EFE6"/>
</svg>
