<svg width="64" height="64" viewBox="0 0 64 64" fill="none" xmlns="http://www.w3.org/2000/svg">
<path d="M49 0H15C6.71573 0 0 6.71573 0 15V49C0 57.2843 6.71573 64 15 64H49C57.2843 64 64 57.2843 64 49V15C64 6.71573 57.2843 0 49 0Z" fill="#333127"/>
<mask id="mask0_167_51" style="mask-type:luminance" maskUnits="userSpaceOnUse" x="14" y="7" width="35" height="51">
<path d="M48.785 7.23438H14.7812V57.7365H48.785V7.23438Z" fill="white"/>
</mask>
<g mask="url(#mask0_167_51)">
<path d="M23.2844 57.7367C27.9761 57.7367 31.7837 53.966 31.7837 49.3198V40.9026H23.2844C18.5928 40.9026 14.7852 44.6736 14.7852 49.3198C14.7852 53.966 18.5928 57.7367 23.2844 57.7367Z" fill="#9D9D9D"/>
<path d="M14.7852 32.4854C14.7852 27.8392 18.5928 24.0684 23.2844 24.0684H31.7837V40.9023H23.2844C18.5928 40.9023 14.7852 37.1316 14.7852 32.4854Z" fill="#BCBCBC"/>
<path d="M14.7852 15.6514C14.7852 11.0052 18.5928 7.23438 23.2844 7.23438H31.7837V24.0684H23.2844C18.5928 24.0684 14.7852 20.2976 14.7852 15.6514Z" fill="#E2E2E2"/>
<path d="M31.7812 7.23438H40.2804C44.972 7.23438 48.7798 11.0052 48.7798 15.6514C48.7798 20.2976 44.972 24.0684 40.2804 24.0684H31.7812V7.23438Z" fill="#F2EFE6"/>
<path d="M48.7798 32.4854C48.7798 37.1316 44.972 40.9023 40.2804 40.9023C35.5888 40.9023 31.7812 37.1316 31.7812 32.4854C31.7812 27.8392 35.5888 24.0684 40.2804 24.0684C44.972 24.0684 48.7798 27.8392 48.7798 32.4854Z" fill="#EAEAEA"/>
</g>
</svg>
