<svg width="64" height="64" viewBox="0 0 64 64" fill="none" xmlns="http://www.w3.org/2000/svg">
<path d="M49 0H15C6.71573 0 0 6.71573 0 15V49C0 57.2843 6.71573 64 15 64H49C57.2843 64 64 57.2843 64 49V15C64 6.71573 57.2843 0 49 0Z" fill="#333127"/>
<path d="M31.9988 55.0004L41.3893 26.7024H22.6094L31.9988 54.9994V55.0004Z" fill="#8A8A8A"/>
<path d="M31.9989 55.0004L22.6095 26.7024H9.44922L31.9989 54.9994V55.0004Z" fill="#B6B6B6"/>
<path d="M9.45019 26.7014L6.59569 35.3014C6.33494 36.0854 6.61919 36.9449 7.30119 37.4297L32 55.0002L9.45019 26.7022V26.7014Z" fill="#F2EFE6"/>
<path d="M9.44922 26.701H22.6095L16.9535 9.65713C16.6625 8.78063 15.3947 8.78063 15.1042 9.65713L9.44922 26.7018V26.701Z" fill="#8A8A8A"/>
<path d="M32.0039 55.0004L41.3944 26.7024H54.5552L32.0039 54.9994V55.0004Z" fill="#B6B6B6"/>
<path d="M54.5547 26.7014L57.4087 35.3014C57.6689 36.0854 57.3837 36.9449 56.7027 37.4297L32.0039 55.0002L54.5547 26.7022V26.7014Z" fill="#F2EFE6"/>
<path d="M54.5506 26.701H41.3906L47.0461 9.65737C47.3374 8.78087 48.6049 8.78087 48.8954 9.65737L54.5514 26.7017L54.5506 26.701Z" fill="#8A8A8A"/>
</svg>
