<svg width="64" height="64" viewBox="0 0 64 64" fill="none" xmlns="http://www.w3.org/2000/svg">
<path d="M49 0H15C6.71573 0 0 6.71573 0 15V49C0 57.2843 6.71573 64 15 64H49C57.2843 64 64 57.2843 64 49V15C64 6.71573 57.2843 0 49 0Z" fill="#333127"/>
<path d="M16.8321 53.4831L21.7299 50.5191C22.6747 52.1943 23.5343 53.6118 25.596 53.6118C27.5722 53.6118 28.8182 52.8388 28.8182 49.8318V29.3823H34.8327V49.9168C34.8327 56.1461 31.1812 58.9816 25.8537 58.9816C21.0425 58.9816 18.2497 56.4898 16.832 53.4826" fill="#F2EFE6"/>
<path d="M38.0977 52.8381L42.9947 50.0028C44.2839 52.1081 45.9594 53.6546 48.9234 53.6546C51.4157 53.6546 53.0047 52.4086 53.0047 50.6901C53.0047 48.6281 51.3722 47.8976 48.6227 46.6951L47.1194 46.0503C42.7802 44.2033 39.9017 41.8833 39.9017 36.9858C39.9017 32.4748 43.3387 29.0378 48.7089 29.0378C52.5324 29.0378 55.2819 30.3698 57.2579 33.8496L52.5752 36.8568C51.5439 35.0096 50.4274 34.2793 48.7089 34.2793C46.9474 34.2793 45.8304 35.3963 45.8304 36.8568C45.8304 38.6611 46.9474 39.3916 49.5249 40.5088L51.0284 41.1531C56.1407 43.3443 59.0192 45.5778 59.0192 50.6041C59.0192 56.0176 54.7662 58.9816 49.0524 58.9816C43.4677 58.9816 39.8589 56.3181 38.0977 52.8381Z" fill="#F2EFE6"/>
</svg>
