<svg width="64" height="64" viewBox="0 0 64 64" fill="none" xmlns="http://www.w3.org/2000/svg">
<path d="M49 0H15C6.71573 0 0 6.71573 0 15V49C0 57.2843 6.71573 64 15 64H49C57.2843 64 64 57.2843 64 49V15C64 6.71573 57.2843 0 49 0Z" fill="#333127"/>
<path fill-rule="evenodd" clip-rule="evenodd" d="M48.0078 39.4175C48.2058 39.3038 48.3705 39.14 48.4852 38.9425C48.6 38.745 48.6607 38.5208 48.6615 38.2925L48.685 30.7573C48.6855 30.529 48.7465 30.3048 48.8613 30.1073C48.9758 29.9098 49.1405 29.746 49.3385 29.6323L53.4232 27.286C53.6212 27.1723 53.8455 27.1128 54.0737 27.113C54.302 27.1135 54.5263 27.1738 54.7238 27.2883C54.9215 27.4025 55.0855 27.5668 55.1995 27.7645C55.3135 27.9623 55.3737 28.1865 55.3737 28.415V42.114C55.3737 42.3433 55.3133 42.568 55.1985 42.7663C55.0838 42.9645 54.9188 43.129 54.72 43.243L39.3048 52.0973C39.1078 52.2103 38.8848 52.2698 38.6578 52.27C38.4308 52.2703 38.2075 52.211 38.0105 52.0985L25.9128 45.1793C25.7135 45.0653 25.5478 44.901 25.4325 44.7025C25.3173 44.504 25.2565 44.2785 25.2565 44.049V37.1415C25.2565 37.1338 25.2658 37.1285 25.2735 37.1323C25.28 37.1363 25.289 37.1323 25.289 37.1233V37.1155C25.289 37.1103 25.2918 37.105 25.297 37.1025L35.2605 31.3785C35.2695 31.3733 35.2655 31.359 35.2553 31.359C35.2525 31.359 35.2498 31.3578 35.2478 31.3558C35.246 31.354 35.2448 31.3513 35.2448 31.3485L35.2643 24.5764C35.2653 24.3474 35.2058 24.1222 35.0918 23.9235C34.978 23.7248 34.8135 23.5597 34.6155 23.4448C34.4175 23.3299 34.1925 23.2693 33.9635 23.2691C33.7345 23.2689 33.5095 23.329 33.3113 23.4435L25.9063 27.7105C25.7085 27.8243 25.4845 27.8843 25.2565 27.8843C25.0285 27.8843 24.8044 27.8243 24.6068 27.7105L17.1784 23.4331C16.9805 23.3192 16.7561 23.2593 16.5277 23.2594C16.2994 23.2596 16.075 23.3198 15.8773 23.4341C15.6796 23.5483 15.5153 23.7125 15.4011 23.9103C15.2869 24.108 15.2267 24.3324 15.2266 24.5607V36.8003C15.2267 37.0285 15.1669 37.2525 15.0532 37.4503C14.9395 37.648 14.7758 37.8125 14.5785 37.927C14.3813 38.0418 14.1573 38.1025 13.9292 38.1033C13.7011 38.104 13.4767 38.045 13.2787 37.9318L9.15625 35.575C8.95658 35.461 8.79068 35.296 8.6754 35.097C8.56013 34.8983 8.49963 34.6723 8.5 34.4423L8.53645 13.049C8.53695 12.8209 8.59735 12.597 8.7116 12.3996C8.82583 12.2022 8.98993 12.0383 9.18743 11.9243C9.38493 11.8102 9.60893 11.75 9.837 11.7498C10.0651 11.7495 10.2892 11.8091 10.487 11.9227L24.6081 20.0334C24.8054 20.1467 25.029 20.2063 25.2565 20.2063C25.484 20.2063 25.7078 20.1467 25.905 20.0334L40.0223 11.9227C40.2203 11.809 40.4448 11.7493 40.673 11.7498C40.9015 11.7502 41.1258 11.8107 41.3235 11.9252C41.521 12.0397 41.685 12.2042 41.799 12.4022C41.913 12.6001 41.9728 12.8245 41.9728 13.0529V34.4513C41.9728 34.6803 41.9125 34.9053 41.798 35.1033C41.6835 35.3015 41.5188 35.466 41.3203 35.5803L33.927 39.838C33.7285 39.9525 33.5638 40.1175 33.4493 40.316C33.3348 40.5145 33.2748 40.74 33.2753 40.9693C33.2758 41.1983 33.3368 41.4233 33.4523 41.6215C33.5675 41.8195 33.7333 41.9835 33.9323 42.0973L38.0105 44.4188C38.2075 44.531 38.4305 44.5898 38.6573 44.5893C38.884 44.5888 39.1068 44.5293 39.3035 44.4163L48.0078 39.4175ZM48.8633 20.2222C48.8635 20.4525 48.9247 20.6786 49.0407 20.8774C49.1567 21.0763 49.3235 21.2409 49.524 21.3543C49.7242 21.4677 49.9512 21.526 50.1815 21.5231C50.4117 21.5203 50.637 21.4564 50.8348 21.3381L54.741 18.9943C54.9338 18.8788 55.0933 18.7153 55.2043 18.5197C55.3153 18.3242 55.3735 18.1032 55.3737 17.8784V13.1024C55.3732 12.8722 55.3118 12.6463 55.1958 12.4476C55.0795 12.2489 54.9128 12.0845 54.7125 11.9713C54.512 11.858 54.2852 11.7998 54.0552 11.8027C53.825 11.8057 53.5997 11.8695 53.4022 11.9878L49.496 14.3316C49.3032 14.4471 49.1435 14.6106 49.0327 14.8062C48.9217 15.0017 48.8635 15.2226 48.8633 15.4475V20.2235V20.2222Z" fill="#F2EFE6"/>
</svg>
