<svg width="64" height="64" viewBox="0 0 64 64" fill="none" xmlns="http://www.w3.org/2000/svg">
<path d="M49 0H15C6.71573 0 0 6.71573 0 15V49C0 57.2843 6.71573 64 15 64H49C57.2843 64 64 57.2843 64 49V15C64 6.71573 57.2843 0 49 0Z" fill="#333127"/>
<path d="M29.9695 7.7791C31.1993 7.0752 32.8008 7.07207 34.0293 7.7791C40.2098 11.2714 46.3923 14.7583 52.5718 18.2527C53.7343 18.9074 54.5115 20.2009 54.4998 21.5402V42.5515C54.5085 43.9462 53.6543 45.2707 52.428 45.9105C46.2678 49.3837 40.1105 52.861 33.9513 56.3342C32.6965 57.0517 31.0628 56.9965 29.8468 56.22C28 55.1495 26.15 54.084 24.303 53.0145C23.9256 52.7895 23.5001 52.6105 23.2336 52.2445C23.4692 51.927 23.8905 51.8875 24.2327 51.7487C25.0035 51.5035 25.7118 51.11 26.4198 50.7282C26.599 50.6057 26.8175 50.6527 26.9893 50.7622C28.5685 51.6677 30.134 52.5997 31.7185 53.4965C32.0565 53.6917 32.3988 53.4325 32.6878 53.2715C38.7328 49.8547 44.7853 46.4512 50.8295 43.0335C51.0535 42.9257 51.1773 42.688 51.159 42.4427C51.1633 35.5115 51.16 28.5792 51.1613 21.6479C51.1868 21.3696 51.0258 21.1137 50.774 20.9997C44.6353 17.5425 38.4993 14.0801 32.3615 10.622C32.1438 10.4723 31.8565 10.4719 31.6385 10.6209C25.5005 14.0801 19.366 17.5458 13.2281 21.0027C12.9773 21.1169 12.809 21.3686 12.8389 21.6479C12.8399 28.5792 12.8389 35.5115 12.8389 42.4437C12.8171 42.689 12.9503 42.9217 13.1727 43.0272C14.8106 43.956 16.4506 44.8782 18.0896 45.804C19.0129 46.3007 20.1466 46.5962 21.1639 46.2155C22.0616 45.8935 22.6908 44.9772 22.6737 44.0242C22.6822 37.1335 22.6695 30.2417 22.6801 23.3519C22.6577 23.046 22.9478 22.7933 23.2453 22.8221C24.0323 22.8167 24.8203 22.8115 25.6073 22.8242C25.9358 22.8167 26.1618 23.1462 26.1213 23.4543C26.118 30.3887 26.1298 37.3232 26.116 44.2575C26.118 46.1057 25.3588 48.1167 23.6493 49.021C21.5434 50.1117 18.9405 49.8805 16.86 48.8345C15.0589 47.9355 13.3401 46.8745 11.571 45.9115C10.3415 45.2752 9.4915 43.9455 9.50015 42.5517V21.5402C9.48725 20.1732 10.2956 18.8562 11.4941 18.2111C17.6533 14.7352 23.8115 11.2565 29.9695 7.7791Z" fill="#F2EFE6"/>
<path d="M35.3427 22.3336C38.0289 22.1607 40.9047 22.2312 43.3219 23.5545C45.1937 24.5687 46.2312 26.6971 46.2642 28.7764C46.2119 29.0566 45.9187 29.2114 45.6509 29.1921C44.8717 29.1911 44.0919 29.2029 43.3127 29.1869C42.9819 29.1996 42.7899 28.8949 42.7484 28.6026C42.5244 27.6076 41.9817 26.6224 41.0454 26.1424C39.6079 25.4229 37.9414 25.4591 36.3739 25.4741C35.2297 25.5346 33.9992 25.6339 33.0297 26.3066C32.2854 26.8164 32.0594 27.8454 32.3249 28.6741C32.5754 29.2691 33.2622 29.4611 33.8244 29.6381C37.0617 30.4849 40.4922 30.4004 43.6677 31.5146C44.9824 31.9689 46.2684 32.8521 46.7184 34.2286C47.3072 36.0736 47.0492 38.2786 45.7364 39.7596C44.6719 40.9784 43.1217 41.6419 41.5754 42.0021C39.5184 42.4609 37.3837 42.4726 35.2947 42.2689C33.3304 42.0449 31.2862 41.5289 29.7699 40.1906C28.4732 39.0646 27.8399 37.3101 27.9027 35.6171C27.9177 35.3311 28.2024 35.1316 28.4764 35.1551C29.2612 35.1489 30.0462 35.1466 30.8309 35.1564C31.1447 35.1339 31.3769 35.4049 31.3932 35.7004C31.5377 36.6481 31.8939 37.6431 32.7207 38.2049C34.3157 39.2341 36.3174 39.1636 38.1439 39.1924C39.6572 39.1254 41.3559 39.1051 42.5907 38.1049C43.2422 37.5344 43.4352 36.5799 43.2592 35.7589C43.0684 35.0656 42.3432 34.7426 41.7204 34.5314C38.5247 33.5206 35.0557 33.8874 31.8909 32.7441C30.6059 32.2901 29.3634 31.4316 28.8699 30.1116C28.1812 28.2434 28.4967 25.9324 29.9469 24.5014C31.3609 23.0779 33.4019 22.5298 35.3427 22.3336Z" fill="#F2EFE6"/>
</svg>
