<svg width="64" height="64" viewBox="0 0 64 64" fill="none" xmlns="http://www.w3.org/2000/svg">
<path d="M49 0H15C6.71573 0 0 6.71573 0 15V49C0 57.2843 6.71573 64 15 64H49C57.2843 64 64 57.2843 64 49V15C64 6.71573 57.2843 0 49 0Z" fill="#333127"/>
<path d="M12.2895 25.0613H19.3915C21.476 25.0788 22.9865 25.6798 23.923 26.8633C24.8595 28.0468 25.1685 29.6633 24.8505 31.7128C24.727 32.6493 24.453 33.5678 24.029 34.4688C23.6225 35.3698 23.0575 36.1823 22.333 36.9068C21.4495 37.8253 20.5045 38.4083 19.4975 38.6558C18.4905 38.9033 17.448 39.0268 16.3705 39.0268H13.1905L12.1835 44.0618H8.5L12.2895 25.0613ZM15.39 28.0823L13.8 36.0323C13.906 36.0498 14.012 36.0588 14.118 36.0588C14.2415 36.0588 14.3655 36.0588 14.489 36.0588C16.185 36.0763 17.5985 35.9088 18.729 35.5553C19.8595 35.1843 20.6195 33.8948 21.008 31.6863C21.326 29.8313 21.008 28.7623 20.054 28.4798C19.1175 28.1973 17.943 28.0648 16.5295 28.0823C16.3175 28.0998 16.1145 28.1088 15.92 28.1088C15.7435 28.1088 15.558 28.1088 15.3635 28.1088L15.39 28.0823Z" fill="#F2EFE6"/>
<path d="M29.0465 20H32.7035L31.67 25.0615H34.956C36.758 25.097 38.1005 25.468 38.984 26.1745C39.885 26.881 40.15 28.224 39.779 30.2025L38.0035 39.027H34.2935L35.9895 30.6C36.166 29.7165 36.113 29.0895 35.8305 28.7185C35.548 28.3475 34.9385 28.162 34.002 28.162L31.0605 28.1355L28.8875 39.027H25.2305L29.0465 20Z" fill="#F2EFE6"/>
<path d="M43.7075 25.0613H50.8095C52.894 25.0788 54.4045 25.6798 55.341 26.8633C56.2775 28.0468 56.5865 29.6633 56.2685 31.7128C56.145 32.6493 55.871 33.5678 55.447 34.4688C55.0405 35.3698 54.4755 36.1823 53.751 36.9068C52.8675 37.8253 51.9225 38.4083 50.9155 38.6558C49.9085 38.9033 48.866 39.0268 47.7885 39.0268H44.6085L43.6015 44.0618H39.918L43.7075 25.0613ZM46.808 28.0823L45.218 36.0323C45.324 36.0498 45.43 36.0588 45.536 36.0588C45.6595 36.0588 45.7835 36.0588 45.907 36.0588C47.603 36.0763 49.0165 35.9088 50.147 35.5553C51.2775 35.1843 52.0375 33.8948 52.426 31.6863C52.744 29.8313 52.426 28.7623 51.472 28.4798C50.5355 28.1973 49.361 28.0648 47.9475 28.0823C47.7355 28.0998 47.5325 28.1088 47.338 28.1088C47.1615 28.1088 46.976 28.1088 46.7815 28.1088L46.808 28.0823Z" fill="#F2EFE6"/>
</svg>
