<svg width="64" height="64" viewBox="0 0 64 64" fill="none" xmlns="http://www.w3.org/2000/svg">
<path d="M49 0H15C6.71573 0 0 6.71573 0 15V49C0 57.2843 6.71573 64 15 64H49C57.2843 64 64 57.2843 64 49V15C64 6.71573 57.2843 0 49 0Z" fill="#333127"/>
<path d="M35.6639 32.0734C35.6639 34.0969 34.0236 35.7374 31.9999 35.7374C29.9765 35.7374 28.3359 34.0969 28.3359 32.0734C28.3359 30.05 29.9765 28.4094 31.9999 28.4094C34.0236 28.4094 35.6639 30.0499 35.6639 32.0734Z" fill="#F2EFE6" stroke="#F2EFE6" stroke-width="2"/>
<path fill-rule="evenodd" clip-rule="evenodd" d="M32.0044 22.5906C38.2664 22.5906 44.0837 23.4891 48.4699 24.9992C53.7547 26.8185 57.0039 29.5763 57.0039 32.0735C57.0039 34.6758 53.5604 37.6055 47.8852 39.4858C43.5947 40.9072 37.9487 41.6493 32.0044 41.6493C25.9099 41.6493 20.1386 40.9527 15.7998 39.47C10.3103 37.5937 7.00391 34.6263 7.00391 32.0735C7.00391 29.5965 10.1063 26.86 15.3168 25.0435C19.7193 23.5086 25.6802 22.5906 32.0034 22.5906H32.0044Z" stroke="#F2EFE6" stroke-width="2"/>
<path fill-rule="evenodd" clip-rule="evenodd" d="M23.7467 27.3595C26.8752 21.9351 30.5595 17.3446 34.059 14.2993C38.275 10.6302 42.2875 9.1932 44.4505 10.4406C46.7047 11.7406 47.5225 16.1874 46.3162 22.0428C45.405 26.4698 43.2265 31.7312 40.2567 36.8807C37.212 42.1602 33.7257 46.8118 30.274 49.8288C25.9062 53.6468 21.6836 55.0285 19.4723 53.7533C17.3265 52.5168 16.506 48.4615 17.5354 43.0402C18.4051 38.4595 20.5877 32.8373 23.7457 27.3595H23.7467Z" stroke="#F2EFE6" stroke-width="2"/>
<path fill-rule="evenodd" clip-rule="evenodd" d="M23.7532 36.8947C20.6159 31.4762 18.48 25.9907 17.5884 21.4381C16.5152 15.9529 17.274 11.759 19.4351 10.508C21.6872 9.20424 25.9481 10.7167 30.4186 14.6861C33.7986 17.6871 37.2694 22.2015 40.2476 27.3459C43.3011 32.6204 45.5896 37.9642 46.4799 42.4612C47.6064 48.1522 46.6946 52.5004 44.4854 53.7792C42.3419 55.0202 38.4191 53.7064 34.2364 50.1069C30.7024 47.0659 26.9214 42.3672 23.7532 36.8947Z" stroke="#F2EFE6" stroke-width="2"/>
</svg>
