<svg width="64" height="64" viewBox="0 0 64 64" fill="none" xmlns="http://www.w3.org/2000/svg">
<path d="M49 0H15C6.71573 0 0 6.71573 0 15V49C0 57.2843 6.71573 64 15 64H49C57.2843 64 64 57.2843 64 49V15C64 6.71573 57.2843 0 49 0Z" fill="#333127"/>
<mask id="mask0_167_88" style="mask-type:luminance" maskUnits="userSpaceOnUse" x="7" y="13" width="50" height="38">
<path d="M57 13.25H7V50.7272H57V13.25Z" fill="white"/>
</mask>
<g mask="url(#mask0_167_88)">
<path d="M50.0252 34.7905C48.2817 34.7995 46.7667 35.2195 45.498 35.84C45.0325 34.9182 44.567 34.0967 44.4847 33.4942C44.3935 32.7915 44.284 32.3625 44.3935 31.5227C44.503 30.683 44.996 29.4875 44.9867 29.3962C44.9777 29.3047 44.8772 28.876 43.8732 28.8667C42.8692 28.8577 42.0022 29.0585 41.9017 29.3232C41.8012 29.5877 41.6097 30.1902 41.482 30.811C41.3085 31.7237 39.4737 34.9822 38.4242 36.689C38.0865 36.0227 37.7945 35.4385 37.7305 34.973C37.6392 34.2702 37.5297 33.8412 37.6392 33.0015C37.7487 32.1617 38.2417 30.966 38.2325 30.8747C38.2235 30.7835 38.123 30.3545 37.119 30.3455C36.115 30.3362 35.2477 30.537 35.1475 30.8017C35.047 31.0665 34.9375 31.6872 34.7275 32.2895C34.5177 32.892 32.0807 38.332 31.4417 39.7375C31.1132 40.4585 30.8302 41.0335 30.6295 41.426C30.6295 41.426 30.6202 41.4535 30.593 41.499C30.4195 41.8367 30.319 42.0192 30.319 42.0192C30.319 42.0192 30.319 42.0192 30.319 42.0285C30.1822 42.275 30.036 42.503 29.963 42.503C29.9082 42.503 29.808 41.846 29.9812 40.9515C30.3465 39.062 31.2135 36.123 31.2045 36.0227C31.2045 35.968 31.3687 35.4567 30.6385 35.192C29.9265 34.9272 29.671 35.3655 29.607 35.3655C29.5432 35.3655 29.4975 35.5207 29.4975 35.5207C29.4975 35.5207 30.2917 32.2165 27.9825 32.2165C26.5402 32.2165 24.5505 33.7955 23.5647 35.2195C22.9441 35.5572 21.6206 36.2782 20.2059 37.054C19.6674 37.3552 19.1106 37.6565 18.5903 37.9395C18.5538 37.903 18.5173 37.8572 18.4808 37.8207C15.6878 34.836 10.5217 32.7277 10.7407 28.7207C10.8229 27.2602 11.3249 23.4268 20.6622 18.7718C28.3475 14.9839 34.463 16.0336 35.5217 18.3611C37.0367 21.6835 32.245 27.8535 24.3041 28.748C21.2738 29.0857 19.6856 27.9175 19.284 27.4795C18.8641 27.023 18.8003 26.9957 18.6451 27.087C18.3895 27.2237 18.5538 27.6345 18.6451 27.8717C18.8824 28.4925 19.859 29.5877 21.5111 30.1262C22.9715 30.601 26.522 30.8657 30.821 29.2045C35.6312 27.3425 39.3917 22.1672 38.2872 17.8317C37.183 13.4323 29.881 11.981 22.9715 14.4363C18.8641 15.8967 14.41 18.1968 11.2062 21.1906C7.4001 24.7503 6.79768 27.8445 7.04413 29.1405C7.92948 33.7407 14.2731 36.7345 16.8105 38.9525C16.6827 39.0255 16.564 39.0895 16.4636 39.1442C15.1949 39.774 10.3574 42.3022 9.15255 44.9767C7.78345 48.007 9.37163 50.1792 10.4213 50.4712C13.6798 51.375 17.0295 49.7502 18.8276 47.0667C20.6257 44.3832 20.4067 40.8967 19.5761 39.2995C19.567 39.2812 19.5578 39.263 19.5396 39.2447C19.8682 39.053 20.2059 38.8522 20.5345 38.6605C21.1825 38.2772 21.8214 37.9212 22.3691 37.629C22.0587 38.478 21.8306 39.491 21.721 40.9515C21.5841 42.6675 22.2869 44.8945 23.2088 45.7707C23.6195 46.154 24.1033 46.1632 24.4136 46.1632C25.4907 46.1632 25.9745 45.2687 26.513 44.21C27.17 42.9137 27.7635 41.4077 27.7635 41.4077C27.7635 41.4077 27.024 45.4787 29.032 45.4787C29.7622 45.4787 30.5015 44.5295 30.8302 44.0457C30.8302 44.0547 30.8302 44.0547 30.8302 44.0547C30.8302 44.0547 30.8485 44.0275 30.885 43.9635C30.958 43.8447 31.0035 43.7717 31.0035 43.7717C31.0035 43.7717 31.0035 43.7627 31.0035 43.7535C31.2957 43.2425 31.9527 42.0832 32.9295 40.1572C34.189 37.6747 35.403 34.5715 35.403 34.5715C35.403 34.5715 35.5125 35.329 35.8867 36.5885C36.1057 37.328 36.5622 38.1402 36.9272 38.9252C36.6352 39.336 36.4527 39.564 36.4527 39.564C36.4527 39.564 36.4527 39.564 36.4617 39.5732C36.2245 39.8835 35.969 40.2212 35.686 40.5497C34.691 41.7365 33.5045 43.0965 33.3402 43.489C33.1485 43.9545 33.1942 44.292 33.5592 44.566C33.824 44.7667 34.2985 44.794 34.7822 44.7667C35.6767 44.7027 36.3067 44.4837 36.617 44.3467C37.1007 44.1735 37.6667 43.9087 38.196 43.5162C39.1727 42.7952 39.766 41.7637 39.7112 40.4037C39.6837 39.6552 39.4372 38.907 39.1362 38.204C39.2275 38.0762 39.3095 37.9485 39.4007 37.8207C40.9435 35.5662 42.139 33.0927 42.139 33.0927C42.139 33.0927 42.2485 33.8502 42.6227 35.11C42.8052 35.7487 43.1795 36.4425 43.5082 37.118C42.057 38.2955 41.1625 39.6645 40.843 40.559C40.268 42.2202 40.7152 42.9685 41.564 43.142C41.9475 43.2242 42.495 43.0417 42.8967 42.8682C43.4077 42.704 44.0102 42.421 44.5852 42.001C45.5617 41.28 46.502 40.276 46.4472 38.916C46.4197 38.2955 46.2555 37.6837 46.0272 37.0905C47.2595 36.5795 48.8477 36.2965 50.874 36.5337C55.2187 37.045 56.0767 39.7557 55.9122 40.8967C55.748 42.0375 54.8352 42.6582 54.534 42.85C54.233 43.0417 54.1325 43.1055 54.16 43.2425C54.1965 43.4432 54.3425 43.434 54.598 43.3975C54.954 43.3337 56.8797 42.4757 56.962 40.3765C57.099 37.693 54.5432 34.763 50.0252 34.7905ZM16.5093 46.0902C15.0671 47.66 13.0591 48.2535 12.192 47.7515C11.261 47.2127 11.6261 44.8945 13.3968 43.2332C14.4739 42.2202 15.8612 41.28 16.7831 40.705C16.993 40.5772 17.3034 40.3947 17.6776 40.1665C17.7415 40.13 17.778 40.1117 17.778 40.1117C17.851 40.066 17.924 40.0205 17.997 39.9747C18.6451 42.348 18.0244 44.4382 16.5093 46.0902ZM27.0057 38.9525C26.5037 40.1757 25.4542 43.3062 24.8152 43.133C24.2675 42.9867 23.9298 40.6137 24.7057 38.268C25.0982 37.0905 25.9287 35.685 26.4125 35.1372C27.1975 34.261 28.0645 33.969 28.2745 34.325C28.5392 34.7905 27.3162 38.1857 27.0057 38.9525ZM35.6677 43.0965C35.4577 43.206 35.257 43.279 35.1657 43.2242C35.1017 43.1877 35.257 43.0417 35.257 43.0417C35.257 43.0417 36.3432 41.8732 36.7722 41.344C37.0185 41.0335 37.3107 40.6685 37.621 40.2577C37.621 40.2942 37.621 40.34 37.621 40.3765C37.621 41.773 36.2702 42.713 35.6677 43.0965ZM42.349 41.572C42.1937 41.4625 42.2212 41.0975 42.7415 39.9565C42.9422 39.5092 43.417 38.761 44.2292 38.0397C44.3205 38.332 44.3845 38.6147 44.3752 38.8795C44.3662 40.6412 43.1065 41.2982 42.349 41.572Z" fill="#F2EFE6"/>
</g>
</svg>
