<svg width="64" height="64" viewBox="0 0 64 64" fill="none" xmlns="http://www.w3.org/2000/svg">
<path d="M49 0H15C6.71573 0 0 6.71573 0 15V49C0 57.2843 6.71573 64 15 64H49C57.2843 64 64 57.2843 64 49V15C64 6.71573 57.2843 0 49 0Z" fill="#333127"/>
<path fill-rule="evenodd" clip-rule="evenodd" d="M20.75 27.5002C22.2498 21.5005 26.0002 18.5002 32 18.5002C41 18.5002 42.125 25.2502 46.625 26.3752C49.6253 27.1255 52.25 26.0005 54.5 23.0002C53.0002 29 49.2498 32.0002 43.25 32.0002C34.25 32.0002 33.125 25.2502 28.625 24.1252C25.6247 23.375 23 24.5 20.75 27.5002ZM9.5 41.0002C10.9998 35.0005 14.7502 32.0002 20.75 32.0002C29.75 32.0002 30.875 38.7502 35.375 39.8752C38.3753 40.6255 41 39.5005 43.25 36.5002C41.7502 42.5 37.9998 45.5002 32 45.5002C23 45.5002 21.875 38.7502 17.375 37.6252C14.3748 36.875 11.75 38 9.5 41.0002Z" fill="#F2EFE6"/>
</svg>
