<svg width="64" height="64" viewBox="0 0 64 64" fill="none" xmlns="http://www.w3.org/2000/svg">
<path d="M49 0H15C6.71573 0 0 6.71573 0 15V49C0 57.2843 6.71573 64 15 64H49C57.2843 64 64 57.2843 64 49V15C64 6.71573 57.2843 0 49 0Z" fill="#333127"/>
<path d="M10.5547 31.9985C10.5547 40.4873 15.4879 47.8233 22.6414 51.2998L12.4114 23.2708C11.2215 25.938 10.5547 28.8895 10.5547 31.9985Z" fill="#F2EFE6"/>
<path d="M46.4782 30.9162C46.4782 28.2659 45.5262 26.4304 44.7097 25.0017C43.6224 23.2351 42.6034 21.7391 42.6034 19.9726C42.6034 18.0012 44.0987 16.1661 46.2047 16.1661C46.2999 16.1661 46.3899 16.1779 46.4827 16.1832C42.6672 12.6877 37.5839 10.5535 32.0004 10.5535C24.5083 10.5535 17.9167 14.3975 14.082 20.2199C14.5852 20.235 15.0594 20.2456 15.4621 20.2456C17.7053 20.2456 21.1776 19.9734 21.1776 19.9734C22.3337 19.9053 22.47 21.6033 21.3151 21.74C21.3151 21.74 20.1533 21.8767 18.8606 21.9444L26.6702 45.1739L31.3634 31.0982L28.0222 21.9436C26.8674 21.8759 25.7734 21.7391 25.7734 21.7391C24.6177 21.6714 24.7532 19.9045 25.9089 19.9726C25.9089 19.9726 29.4504 20.2448 31.5577 20.2448C33.8007 20.2448 37.2732 19.9726 37.2732 19.9726C38.4302 19.9045 38.5659 21.6024 37.4107 21.7391C37.4107 21.7391 36.2464 21.8759 34.9562 21.9436L42.7064 44.9972L44.8454 37.8492C45.7727 34.8827 46.4782 32.7522 46.4782 30.9162Z" fill="#F2EFE6"/>
<path d="M32.3759 33.8743L25.9414 52.5718C27.8624 53.1365 29.8944 53.4455 31.9997 53.4455C34.4969 53.4455 36.8919 53.0138 39.1212 52.2298C39.0637 52.138 39.0114 52.0405 38.9687 51.9343L32.3759 33.8743Z" fill="#F2EFE6"/>
<path d="M50.8143 21.7095C50.9066 22.3926 50.9588 23.1259 50.9588 23.9147C50.9588 26.0908 50.5523 28.5373 49.3281 31.5963L42.7773 50.5361C49.1531 46.8181 53.4416 39.9108 53.4416 31.9991C53.4418 28.2703 52.4896 24.7643 50.8143 21.7095Z" fill="#F2EFE6"/>
<path d="M32.0034 7.00024C18.219 7.00024 7.00391 18.2145 7.00391 31.9987C7.00391 45.7847 18.219 56.9985 32.0034 56.9985C45.7872 56.9985 57.0039 45.7847 57.0039 31.9987C57.0034 18.2145 45.7872 7.00024 32.0034 7.00024ZM32.0034 55.8527C18.8511 55.8527 8.15018 45.1517 8.15018 31.9987C8.15018 18.8466 18.8507 8.14652 32.0034 8.14652C45.1552 8.14652 55.8552 18.8466 55.8552 31.9987C55.8552 45.1517 45.1552 55.8527 32.0034 55.8527Z" fill="#F2EFE6"/>
</svg>
